<?xml version="1.0" standalone="no"?>
<!DOCTYPE svg PUBLIC "-//W3C//DTD SVG 1.1//EN"
  "http://www.w3.org/Graphics/SVG/1.1/DTD/svg11.dtd">
<svg xmlns="http://www.w3.org/2000/svg" version="1.1" class="railroad-diagram" width="1033" height="82" viewBox="0 0 1033 82">
<defs><style type="text/css"><![CDATA[ svg.railroad-diagram {
  background-color: hsl(30,20%,95%);
}
svg.railroad-diagram path {
  stroke-width: 3;
  stroke: black;
  fill: none;
}
svg.railroad-diagram text {
  font: bold 14px monospace;
  text-anchor: middle;
  cursor: pointer;
}
svg.railroad-diagram text.label {
  text-anchor: start;
}
svg.railroad-diagram text.comment {
  font: italic 12px monospace;
}
svg.railroad-diagram rect {
  stroke-width: 3;
  stroke: black;
  fill: hsl(120,100%,90%);
}
 ]]></style></defs>
<g transform="translate(.5 .5)">
<path d="M 20 41 v 20 m 10 -20 v 20 m -10 -10 h 20.5"></path>
<g>
<path d="M40 51h0"></path>
<path d="M992 51h0"></path>
<path d="M40 51h10"></path>
<g>
<path d="M50 51h0"></path>
<path d="M102 51h0"></path>
<rect x="50" y="40" width="52" height="22" rx="10" ry="10"></rect>
<text x="76" y="55">ext:</text>
</g>
<path d="M102 51h10"></path>
<g>
<path d="M112 51h0"></path>
<path d="M476 51h0"></path>
<path d="M112 51a10 10 0 0 0 10 -10v-9a10 10 0 0 1 10 -10"></path>
<g>
<path d="M132 22h324"></path>
</g>
<path d="M456 22a10 10 0 0 1 10 10v9a10 10 0 0 0 10 10"></path>
<path d="M112 51h20"></path>
<g>
<path d="M132 51h0"></path>
<path d="M456 51h0"></path>
<path d="M132 51h10"></path>
<g>
<path d="M142 51h0"></path>
<path d="M202 51h0"></path>
<rect x="142" y="40" width="60" height="22"></rect>
<text x="172" y="55">piece</text>
</g>
<path d="M202 51h10"></path>
<g>
<path d="M212 51h0"></path>
<path d="M456 51h0"></path>
<path d="M212 51a10 10 0 0 0 10 -10v0a10 10 0 0 1 10 -10"></path>
<g>
<path d="M232 31h204"></path>
</g>
<path d="M436 31a10 10 0 0 1 10 10v0a10 10 0 0 0 10 10"></path>
<path d="M212 51h20"></path>
<g>
<path d="M232 51h0"></path>
<path d="M436 51h0"></path>
<rect x="232" y="40" width="204" height="22"></rect>
<text x="334" y="55">extended&#95;piece&#95;position</text>
</g>
<path d="M436 51h20"></path>
</g>
</g>
<path d="M456 51h20"></path>
</g>
<path d="M476 51h10"></path>
<g>
<path d="M486 51h0"></path>
<path d="M618 51h0"></path>
<rect x="486" y="40" width="132" height="22"></rect>
<text x="552" y="55">capture&#95;symbol</text>
</g>
<path d="M618 51h10"></path>
<g>
<path d="M628 51h0"></path>
<path d="M992 51h0"></path>
<path d="M628 51a10 10 0 0 0 10 -10v-9a10 10 0 0 1 10 -10"></path>
<g>
<path d="M648 22h324"></path>
</g>
<path d="M972 22a10 10 0 0 1 10 10v9a10 10 0 0 0 10 10"></path>
<path d="M628 51h20"></path>
<g>
<path d="M648 51h0"></path>
<path d="M972 51h0"></path>
<path d="M648 51h10"></path>
<g>
<path d="M658 51h0"></path>
<path d="M718 51h0"></path>
<rect x="658" y="40" width="60" height="22"></rect>
<text x="688" y="55">piece</text>
</g>
<path d="M718 51h10"></path>
<g>
<path d="M728 51h0"></path>
<path d="M972 51h0"></path>
<path d="M728 51a10 10 0 0 0 10 -10v0a10 10 0 0 1 10 -10"></path>
<g>
<path d="M748 31h204"></path>
</g>
<path d="M952 31a10 10 0 0 1 10 10v0a10 10 0 0 0 10 10"></path>
<path d="M728 51h20"></path>
<g>
<path d="M748 51h0"></path>
<path d="M952 51h0"></path>
<rect x="748" y="40" width="204" height="22"></rect>
<text x="850" y="55">extended&#95;piece&#95;position</text>
</g>
<path d="M952 51h20"></path>
</g>
</g>
<path d="M972 51h20"></path>
</g>
</g>
<path d="M 992 51 h 20 m -10 -10 v 20 m 10 -20 v 20"></path>
</g>
</svg>
