<?xml version="1.0" standalone="no"?>
<!DOCTYPE svg PUBLIC "-//W3C//DTD SVG 1.1//EN"
  "http://www.w3.org/Graphics/SVG/1.1/DTD/svg11.dtd">
<svg xmlns="http://www.w3.org/2000/svg" version="1.1" class="railroad-diagram" width="917" height="102" viewBox="0 0 917 102">
<defs><style type="text/css"><![CDATA[ svg.railroad-diagram {
  background-color: hsl(30,20%,95%);
}
svg.railroad-diagram path {
  stroke-width: 3;
  stroke: black;
  fill: none;
}
svg.railroad-diagram text {
  font: bold 14px monospace;
  text-anchor: middle;
  cursor: pointer;
}
svg.railroad-diagram text.label {
  text-anchor: start;
}
svg.railroad-diagram text.comment {
  font: italic 12px monospace;
}
svg.railroad-diagram rect {
  stroke-width: 3;
  stroke: black;
  fill: hsl(120,100%,90%);
}
 ]]></style></defs>
<g transform="translate(.5 .5)">
<path d="M 20 31 v 20 m 10 -20 v 20 m -10 -10 h 20.5"></path>
<g>
<path d="M40 41h0"></path>
<path d="M876 41h0"></path>
<path d="M40 41h10"></path>
<g>
<path d="M50 41h0"></path>
<path d="M102 41h0"></path>
<rect x="50" y="30" width="52" height="22" rx="10" ry="10"></rect>
<text x="76" y="45">ext:</text>
</g>
<path d="M102 41h10"></path>
<path d="M112 41h10"></path>
<g>
<path d="M122 41h0"></path>
<path d="M182 41h0"></path>
<rect x="122" y="30" width="60" height="22"></rect>
<text x="152" y="45">piece</text>
</g>
<path d="M182 41h10"></path>
<path d="M192 41h10"></path>
<g>
<path d="M202 41h0"></path>
<path d="M406 41h0"></path>
<rect x="202" y="30" width="204" height="22"></rect>
<text x="304" y="45">extended&#95;piece&#95;position</text>
</g>
<path d="M406 41h10"></path>
<path d="M416 41h10"></path>
<g>
<path d="M426 41h0"></path>
<path d="M662 41h0"></path>
<rect x="426" y="30" width="236" height="22"></rect>
<text x="544" y="45">extended&#95;movement&#95;direction</text>
</g>
<path d="M662 41h10"></path>
<g>
<path d="M672 41h0"></path>
<path d="M876 41h0"></path>
<path d="M672 41a10 10 0 0 0 10 -10v0a10 10 0 0 1 10 -10"></path>
<g>
<path d="M692 21h164"></path>
</g>
<path d="M856 21a10 10 0 0 1 10 10v0a10 10 0 0 0 10 10"></path>
<path d="M672 41h20"></path>
<g>
<path d="M692 41h0"></path>
<path d="M856 41h0"></path>
<path d="M692 41h20"></path>
<g>
<path d="M712 41h0"></path>
<path d="M836 41h0"></path>
<rect x="712" y="30" width="124" height="22"></rect>
<text x="774" y="45">column&#95;number</text>
</g>
<path d="M836 41h20"></path>
<path d="M692 41a10 10 0 0 1 10 10v10a10 10 0 0 0 10 10"></path>
<g>
<path d="M712 71h4"></path>
<path d="M832 71h4"></path>
<rect x="716" y="60" width="116" height="22"></rect>
<text x="774" y="75">num&#95;of&#95;steps</text>
</g>
<path d="M836 71a10 10 0 0 0 10 -10v-10a10 10 0 0 1 10 -10"></path>
</g>
<path d="M856 41h20"></path>
</g>
</g>
<path d="M 876 41 h 20 m -10 -10 v 20 m 10 -20 v 20"></path>
</g>
</svg>
