<?xml version="1.0" standalone="no"?>
<!DOCTYPE svg PUBLIC "-//W3C//DTD SVG 1.1//EN"
  "http://www.w3.org/Graphics/SVG/1.1/DTD/svg11.dtd">
<svg xmlns="http://www.w3.org/2000/svg" version="1.1" class="railroad-diagram" width="349" height="182" viewBox="0 0 349 182">
<defs><style type="text/css"><![CDATA[ svg.railroad-diagram {
  background-color: hsl(30,20%,95%);
}
svg.railroad-diagram path {
  stroke-width: 3;
  stroke: black;
  fill: none;
}
svg.railroad-diagram text {
  font: bold 14px monospace;
  text-anchor: middle;
  cursor: pointer;
}
svg.railroad-diagram text.label {
  text-anchor: start;
}
svg.railroad-diagram text.comment {
  font: italic 12px monospace;
}
svg.railroad-diagram rect {
  stroke-width: 3;
  stroke: black;
  fill: hsl(120,100%,90%);
}
 ]]></style></defs>
<g transform="translate(.5 .5)">
<path d="M 20 21 v 20 m 10 -20 v 20 m -10 -10 h 20.5"></path>
<g>
<path d="M40 31h0"></path>
<path d="M308 31h0"></path>
<path d="M40 31h20"></path>
<g>
<path d="M60 31h0"></path>
<path d="M288 31h0"></path>
<rect x="60" y="20" width="228" height="22"></rect>
<text x="174" y="35">vertical&#95;relative&#95;position</text>
</g>
<path d="M288 31h20"></path>
<path d="M40 31a10 10 0 0 1 10 10v10a10 10 0 0 0 10 10"></path>
<g>
<path d="M60 61h72"></path>
<path d="M216 61h72"></path>
<rect x="132" y="50" width="84" height="22"></rect>
<text x="174" y="65">left&#95;pos</text>
</g>
<path d="M288 61a10 10 0 0 0 10 -10v-10a10 10 0 0 1 10 -10"></path>
<path d="M40 31a10 10 0 0 1 10 10v40a10 10 0 0 0 10 10"></path>
<g>
<path d="M60 91h68"></path>
<path d="M220 91h68"></path>
<rect x="128" y="80" width="92" height="22"></rect>
<text x="174" y="95">right&#95;pos</text>
</g>
<path d="M288 91a10 10 0 0 0 10 -10v-40a10 10 0 0 1 10 -10"></path>
<path d="M40 31a10 10 0 0 1 10 10v70a10 10 0 0 0 10 10"></path>
<g>
<path d="M60 121h60"></path>
<path d="M228 121h60"></path>
<rect x="120" y="110" width="108" height="22"></rect>
<text x="174" y="125">leftmid&#95;pos</text>
</g>
<path d="M288 121a10 10 0 0 0 10 -10v-70a10 10 0 0 1 10 -10"></path>
<path d="M40 31a10 10 0 0 1 10 10v100a10 10 0 0 0 10 10"></path>
<g>
<path d="M60 151h56"></path>
<path d="M232 151h56"></path>
<rect x="116" y="140" width="116" height="22"></rect>
<text x="174" y="155">rightmid&#95;pos</text>
</g>
<path d="M288 151a10 10 0 0 0 10 -10v-100a10 10 0 0 1 10 -10"></path>
</g>
<path d="M 308 31 h 20 m -10 -10 v 20 m 10 -20 v 20"></path>
</g>
</svg>
