<?xml version="1.0" standalone="no"?>
<!DOCTYPE svg PUBLIC "-//W3C//DTD SVG 1.1//EN"
  "http://www.w3.org/Graphics/SVG/1.1/DTD/svg11.dtd">
<svg xmlns="http://www.w3.org/2000/svg" version="1.1" class="railroad-diagram" width="429" height="242" viewBox="0 0 429 242">
<defs><style type="text/css"><![CDATA[ svg.railroad-diagram {
  background-color: hsl(30,20%,95%);
}
svg.railroad-diagram path {
  stroke-width: 3;
  stroke: black;
  fill: none;
}
svg.railroad-diagram text {
  font: bold 14px monospace;
  text-anchor: middle;
  cursor: pointer;
}
svg.railroad-diagram text.label {
  text-anchor: start;
}
svg.railroad-diagram text.comment {
  font: italic 12px monospace;
}
svg.railroad-diagram rect {
  stroke-width: 3;
  stroke: black;
  fill: hsl(120,100%,90%);
}
 ]]></style></defs>
<g transform="translate(.5 .5)">
<path d="M 20 21 v 20 m 10 -20 v 20 m -10 -10 h 20.5"></path>
<g>
<path d="M40 31h0"></path>
<path d="M388 31h0"></path>
<path d="M40 31h10"></path>
<g>
<path d="M50 31h0"></path>
<path d="M110 31h0"></path>
<rect x="50" y="20" width="60" height="22" rx="10" ry="10"></rect>
<text x="80" y="35">meta:</text>
</g>
<path d="M110 31h10"></path>
<g>
<path d="M120 31h0"></path>
<path d="M388 31h0"></path>
<path d="M120 31h20"></path>
<g>
<path d="M140 31h48"></path>
<path d="M320 31h48"></path>
<rect x="188" y="20" width="132" height="22"></rect>
<text x="254" y="35">confirm&#95;symbol</text>
</g>
<path d="M368 31h20"></path>
<path d="M120 31a10 10 0 0 1 10 10v10a10 10 0 0 0 10 10"></path>
<g>
<path d="M140 61h52"></path>
<path d="M316 61h52"></path>
<rect x="192" y="50" width="124" height="22"></rect>
<text x="254" y="65">cancel&#95;symbol</text>
</g>
<path d="M368 61a10 10 0 0 0 10 -10v-10a10 10 0 0 1 10 -10"></path>
<path d="M120 31a10 10 0 0 1 10 10v40a10 10 0 0 0 10 10"></path>
<g>
<path d="M140 91h28"></path>
<path d="M340 91h28"></path>
<rect x="168" y="80" width="172" height="22"></rect>
<text x="254" y="95">ask&#95;for&#95;draw&#95;symbol</text>
</g>
<path d="M368 91a10 10 0 0 0 10 -10v-40a10 10 0 0 1 10 -10"></path>
<path d="M120 31a10 10 0 0 1 10 10v70a10 10 0 0 0 10 10"></path>
<g>
<path d="M140 121h0"></path>
<path d="M368 121h0"></path>
<rect x="140" y="110" width="228" height="22"></rect>
<text x="254" y="125">ask&#95;for&#95;change&#95;side&#95;symbol</text>
</g>
<path d="M368 121a10 10 0 0 0 10 -10v-70a10 10 0 0 1 10 -10"></path>
<path d="M120 31a10 10 0 0 1 10 10v100a10 10 0 0 0 10 10"></path>
<g>
<path d="M140 151h12"></path>
<path d="M356 151h12"></path>
<rect x="152" y="140" width="204" height="22"></rect>
<text x="254" y="155">ask&#95;for&#95;takeback&#95;symbol</text>
</g>
<path d="M368 151a10 10 0 0 0 10 -10v-100a10 10 0 0 1 10 -10"></path>
<path d="M120 31a10 10 0 0 1 10 10v130a10 10 0 0 0 10 10"></path>
<g>
<path d="M140 181h52"></path>
<path d="M316 181h52"></path>
<rect x="192" y="170" width="124" height="22"></rect>
<text x="254" y="185">resign&#95;symbol</text>
</g>
<path d="M368 181a10 10 0 0 0 10 -10v-130a10 10 0 0 1 10 -10"></path>
<path d="M120 31a10 10 0 0 1 10 10v160a10 10 0 0 0 10 10"></path>
<g>
<path d="M140 211h44"></path>
<path d="M324 211h44"></path>
<rect x="184" y="200" width="140" height="22"></rect>
<text x="254" y="215">new&#95;game&#95;symbol</text>
</g>
<path d="M368 211a10 10 0 0 0 10 -10v-160a10 10 0 0 1 10 -10"></path>
</g>
</g>
<path d="M 388 31 h 20 m -10 -10 v 20 m 10 -20 v 20"></path>
</g>
</svg>
