<?xml version="1.0" standalone="no"?>
<!DOCTYPE svg PUBLIC "-//W3C//DTD SVG 1.1//EN"
  "http://www.w3.org/Graphics/SVG/1.1/DTD/svg11.dtd">
<svg xmlns="http://www.w3.org/2000/svg" version="1.1" class="railroad-diagram" width="253" height="242" viewBox="0 0 253 242">
<defs><style type="text/css"><![CDATA[ svg.railroad-diagram {
  background-color: hsl(30,20%,95%);
}
svg.railroad-diagram path {
  stroke-width: 3;
  stroke: black;
  fill: none;
}
svg.railroad-diagram text {
  font: bold 14px monospace;
  text-anchor: middle;
  cursor: pointer;
}
svg.railroad-diagram text.label {
  text-anchor: start;
}
svg.railroad-diagram text.comment {
  font: italic 12px monospace;
}
svg.railroad-diagram rect {
  stroke-width: 3;
  stroke: black;
  fill: hsl(120,100%,90%);
}
 ]]></style></defs>
<g transform="translate(.5 .5)">
<path d="M 20 21 v 20 m 10 -20 v 20 m -10 -10 h 20.5"></path>
<g>
<path d="M40 31h0"></path>
<path d="M212 31h0"></path>
<path d="M40 31h20"></path>
<g>
<path d="M60 31h4"></path>
<path d="M188 31h4"></path>
<rect x="64" y="20" width="124" height="22"></rect>
<text x="126" y="35">general&#95;piece</text>
</g>
<path d="M192 31h20"></path>
<path d="M40 31a10 10 0 0 1 10 10v10a10 10 0 0 0 10 10"></path>
<g>
<path d="M60 61h4"></path>
<path d="M188 61h4"></path>
<rect x="64" y="50" width="124" height="22"></rect>
<text x="126" y="65">soldier&#95;piece</text>
</g>
<path d="M192 61a10 10 0 0 0 10 -10v-10a10 10 0 0 1 10 -10"></path>
<path d="M40 31a10 10 0 0 1 10 10v40a10 10 0 0 0 10 10"></path>
<g>
<path d="M60 91h8"></path>
<path d="M184 91h8"></path>
<rect x="68" y="80" width="116" height="22"></rect>
<text x="126" y="95">cannon&#95;piece</text>
</g>
<path d="M192 91a10 10 0 0 0 10 -10v-40a10 10 0 0 1 10 -10"></path>
<path d="M40 31a10 10 0 0 1 10 10v70a10 10 0 0 0 10 10"></path>
<g>
<path d="M60 121h12"></path>
<path d="M180 121h12"></path>
<rect x="72" y="110" width="108" height="22"></rect>
<text x="126" y="125">horse&#95;piece</text>
</g>
<path d="M192 121a10 10 0 0 0 10 -10v-70a10 10 0 0 1 10 -10"></path>
<path d="M40 31a10 10 0 0 1 10 10v100a10 10 0 0 0 10 10"></path>
<g>
<path d="M60 151h0"></path>
<path d="M192 151h0"></path>
<rect x="60" y="140" width="132" height="22"></rect>
<text x="126" y="155">elephant&#95;piece</text>
</g>
<path d="M192 151a10 10 0 0 0 10 -10v-100a10 10 0 0 1 10 -10"></path>
<path d="M40 31a10 10 0 0 1 10 10v130a10 10 0 0 0 10 10"></path>
<g>
<path d="M60 181h16"></path>
<path d="M176 181h16"></path>
<rect x="76" y="170" width="100" height="22"></rect>
<text x="126" y="185">rook&#95;piece</text>
</g>
<path d="M192 181a10 10 0 0 0 10 -10v-130a10 10 0 0 1 10 -10"></path>
<path d="M40 31a10 10 0 0 1 10 10v160a10 10 0 0 0 10 10"></path>
<g>
<path d="M60 211h4"></path>
<path d="M188 211h4"></path>
<rect x="64" y="200" width="124" height="22"></rect>
<text x="126" y="215">advisor&#95;piece</text>
</g>
<path d="M192 211a10 10 0 0 0 10 -10v-160a10 10 0 0 1 10 -10"></path>
</g>
<path d="M 212 31 h 20 m -10 -10 v 20 m 10 -20 v 20"></path>
</g>
</svg>
